<svg width="12" height="12" viewBox="0 0 12 12" fill="none" xmlns="http://www.w3.org/2000/svg">
<path opacity="0.4" d="M6.00852 11.2362C2.98293 11.2362 0.522407 8.77515 0.522407 5.75011C0.522407 2.72507 2.98293 0.264 6.00852 0.264C9.03356 0.264 11.4946 2.72507 11.4946 5.75011C11.4946 8.77515 9.03356 11.2362 6.00852 11.2362" fill="white"/>
<path d="M6.79982 8.06564C6.69504 8.06564 6.5897 8.02559 6.50961 7.94549L4.5966 6.04181C4.51924 5.96446 4.4759 5.85967 4.4759 5.74995C4.4759 5.64078 4.51924 5.53599 4.5966 5.45864L6.50961 3.55386C6.67035 3.39366 6.93039 3.39366 7.09113 3.55496C7.25133 3.71625 7.25078 3.97684 7.09004 4.13703L5.46999 5.74995L7.09004 7.36287C7.25078 7.52306 7.25133 7.7831 7.09113 7.94439C7.01104 8.02559 6.90515 8.06564 6.79982 8.06564Z" fill="#222222"/>
</svg>
