<svg width="117" height="47" viewBox="0 0 117 47" fill="none" xmlns="http://www.w3.org/2000/svg">
<path d="M30.7592 26.8098L33.232 15.2737H38.7135L39.386 12H24.5656L23.8931 15.2737H29.3746L26.9019 26.8098H30.7592Z" fill="#222222"/>
<path d="M37.4837 28.8098H41.3411L42.7242 23.6736H45.9978L48.1803 30.3098H52.3041L49.7918 23.2295C52.5833 22.3159 54.3216 19.8797 54.3216 17.1897C54.3216 14.1444 51.9742 12 48.5863 12H41.3411L37.4837 28.8098ZM44.564 15.096H47.7108C49.4111 15.096 50.4135 15.9843 50.4135 17.5323C50.4135 19.4102 48.9162 20.7298 46.6703 20.7298H43.3205L44.564 15.096Z" fill="#222222"/>
<path d="M65.9709 30.3098H69.9171L67.5443 12H63.116L52.7112 30.3098H56.7082L59.0683 25.9449H65.5268L65.9709 30.3098ZM64.3721 15.8193H64.6132L65.3492 22.9884H60.5148L64.3721 15.8193Z" fill="#222222"/>
<path d="M79.4093 30.3098L89.3953 12H85.0812L78.0516 25.9703H77.8232L76.5416 12H72.4686L74.7779 30.3098H79.4093Z" fill="#222222"/>
<path d="M100.017 27.0361H91.7311L92.7208 22.5824H100.524L101.159 19.5498H93.3425L94.2942 15.2737H102.567L103.24 12H91.1093L87.2139 30.3098H99.357L100.017 27.0361Z" fill="#222222"/>
<path d="M109.185 26.9727H106.489L109.699 12H105.855L101.959 30.3098H105.855L109.185 26.9727Z" fill="#222222"/>
<path d="M10.615 28.067C10.3981 28.1483 10.1931 28.2294 10 28.3098C10.189 28.2279 10.3941 28.1467 10.615 28.067C17.1376 25.6214 34.3208 22.9543 56 30.3098C78.4 37.9098 105.667 28.8098 116.5 23.3098C106.667 31.8098 80.8 46.1098 56 35.3098C32.1376 24.9181 16.2372 26.0374 10.615 28.067Z" fill="#3FB195"/>
<path d="M17.7049 0.233597C17.8814 0.175199 18.1755 0 18.4108 0H18.5873C18.8225 0 19.0578 0.175199 19.1755 0.350398L19.8813 1.28478C19.9401 1.45998 20.3519 1.63518 20.5871 1.63518L22.6459 2.33597C22.8811 2.33597 23.0576 2.51117 23.2341 2.68636L23.8811 3.79595C24.1164 3.85435 23.9399 4.14635 23.8811 4.32154L22.587 5.66473C22.4694 5.78153 22.3518 6.13192 22.1753 6.30712L21.94 7.4751V8.29269L22.1753 8.81829C22.3518 9.05188 22.4106 9.40228 22.4106 9.63587L22.4694 9.98627C22.4694 10.1615 22.4694 10.5703 22.4106 10.8039L21.7636 12.2638C21.7047 12.439 21.4695 12.731 21.4106 12.9646L20.0578 16.3518C19.8813 16.5854 19.8813 16.9942 19.8813 17.2278C19.8813 17.4614 19.9401 17.7534 19.8813 17.9286C19.5284 20.0893 18.5873 25.3453 18.4108 25.8125L17.352 28.8492C17.2344 29.0244 17.0579 29.4332 17.0579 29.6668C16.8815 30.3092 16.9991 30.4844 16.6462 30.9516L14.6463 34.2804C14.5875 34.4556 14.2934 34.7475 14.1757 34.8059L12.6464 36.4995C12.5876 36.6747 12.3523 36.9083 12.2935 37.1419L10.8818 40.7043C10.823 40.9379 10.823 41.3467 10.823 41.4635V45.201C10.823 45.493 10.7053 45.7266 10.6465 45.9602L10.4112 46.7778C10.2936 46.953 10.0583 47.0698 9.88183 46.953L9.17599 46.6026C9.05835 46.4858 8.70542 46.369 8.52896 46.1354L8.23486 45.9602C8.17604 45.7266 8.0584 45.493 8.0584 45.201L8.23486 44.2082C8.23486 43.9746 8.23486 43.6826 8.17604 43.449L7.35255 41.6971C7.29373 41.4635 7.11727 41.2299 6.82317 40.9963L5.05856 39.4195C4.82328 39.1859 4.52917 39.1275 4.29389 39.1275H4.23507C4.05861 39.1275 3.76451 38.9523 3.64687 38.7187L2.35282 36.9083C2.23518 36.7331 2.17636 36.4411 2.05872 36.2075L1.70579 34.9227C1.70579 34.7475 1.58815 34.3388 1.58815 34.1636V32.8204C1.58815 32.5868 1.52933 32.3532 1.29405 32.2948L0.294102 31.4772C0.0588206 31.4188 0 31.01 0 30.8348L0.0588205 30.1924C0.0588205 29.9588 0.235282 29.6668 0.235282 29.4332L0.411743 28.4988C0.411743 28.3236 0.647025 28.0316 0.647025 27.8564L0.823486 27.7396C0.999947 27.506 1.11759 27.2724 0.999947 27.0388L0.823486 23.0677C0.823486 22.8925 0.823486 22.6005 0.999947 22.4253L7.82312 10.5119C7.94076 10.2783 8.17604 9.98627 8.3525 9.81107L9.88183 8.0591C10.0583 7.9423 10.2936 7.6503 10.4112 7.4751L12.117 3.67915C12.1758 3.50395 12.5288 3.27036 12.6464 3.27036L14.411 2.62797C14.6463 2.51117 14.9404 2.39437 15.2933 2.33597L16.3521 2.16077C16.5874 2.04397 16.8226 1.81038 16.8226 1.63518C16.8226 1.45998 16.8815 1.10959 17.0579 0.875988L17.7049 0.233597Z" fill="#3FB195"/>
</svg>
