<svg width="24" height="24" viewBox="0 0 24 24" fill="none" xmlns="http://www.w3.org/2000/svg">
<path opacity="0.4" d="M14.4183 5.48976C13.9422 5.40182 13.505 5.70561 13.4144 6.17029C13.3238 6.63497 13.6285 7.08866 14.0916 7.1796C15.4859 7.45141 16.5624 8.53067 16.8353 9.92971V9.93071C16.913 10.3334 17.2675 10.6262 17.6759 10.6262C17.7306 10.6262 17.7854 10.6212 17.8412 10.6112C18.3043 10.5183 18.609 10.0656 18.5184 9.59994C18.1111 7.51037 16.5027 5.89648 14.4183 5.48976Z" fill="#3FB195"/>
<path opacity="0.4" d="M14.3561 2.00793C14.133 1.97595 13.9089 2.04191 13.7307 2.18381C13.5474 2.32771 13.4329 2.53557 13.408 2.76841C13.3552 3.23908 13.6948 3.66479 14.1649 3.71776C17.4065 4.07951 19.9262 6.60477 20.2907 9.85654C20.3395 10.2922 20.705 10.621 21.1412 10.621C21.174 10.621 21.2059 10.619 21.2388 10.615C21.4668 10.59 21.67 10.4771 21.8134 10.2972C21.9558 10.1174 22.0206 9.89351 21.9947 9.66467C21.5405 5.60746 18.4005 2.45862 14.3561 2.00793Z" fill="#3FB195"/>
<path fill-rule="evenodd" clip-rule="evenodd" d="M11.5564 12.4475C15.3355 16.2256 16.1928 11.8548 18.599 14.2593C20.9188 16.5784 22.2521 17.043 19.313 19.9813C18.9448 20.2772 16.6057 23.8367 8.38541 15.6186C0.164073 7.39958 3.7215 5.05811 4.01745 4.69006C6.96366 1.74364 7.42029 3.08468 9.74004 5.40379C12.1462 7.80931 7.77725 8.66945 11.5564 12.4475Z" fill="#3FB195"/>
</svg>
