<svg width="8" height="7" viewBox="0 0 8 7" fill="none" xmlns="http://www.w3.org/2000/svg">
<path d="M6.08332 5.56042V5.97188C6.08332 6.1683 6.00529 6.35668 5.86639 6.49558C5.7275 6.63447 5.53912 6.7125 5.34269 6.7125H2.87394C2.67752 6.7125 2.48914 6.63447 2.35024 6.49558C2.21135 6.35668 2.13332 6.1683 2.13332 5.97188V5.56009L1.55728 5.56042C1.36085 5.56042 1.17247 5.48239 1.03357 5.34349C0.89468 5.2046 0.81665 5.01622 0.81665 4.81979V2.84611C0.81665 2.56238 0.92936 2.29028 1.12999 2.08965C1.33061 1.88903 1.60272 1.77632 1.88644 1.77632L2.13299 1.77599L2.13332 1.52813C2.13332 1.3317 2.21135 1.14332 2.35024 1.00443C2.48914 0.865532 2.67752 0.787502 2.87394 0.787502H5.34335C5.53978 0.787502 5.72816 0.865532 5.86705 1.00443C6.00595 1.14332 6.08398 1.3317 6.08398 1.52813V1.77599H6.33085C6.61458 1.77616 6.88666 1.88891 7.08735 2.08948C7.28804 2.29005 7.40095 2.56205 7.4013 2.84578L7.40229 4.81979C7.40233 4.91701 7.38323 5.01328 7.34606 5.10312C7.3089 5.19295 7.25441 5.27459 7.18569 5.34336C7.11698 5.41213 7.0354 5.4667 6.9456 5.50394C6.8558 5.54118 6.75954 5.56038 6.66232 5.56042H6.08332ZM5.34269 4.24375H2.87394C2.80847 4.24375 2.74567 4.26976 2.69938 4.31606C2.65308 4.36236 2.62707 4.42515 2.62707 4.49063V5.97188C2.62707 6.10815 2.73767 6.21875 2.87394 6.21875H5.34269C5.40817 6.21875 5.47096 6.19274 5.51726 6.14644C5.56356 6.10015 5.58957 6.03735 5.58957 5.97188V4.49063C5.58957 4.42515 5.56356 4.36236 5.51726 4.31606C5.47096 4.26976 5.40817 4.24375 5.34269 4.24375ZM5.34335 1.28125H2.87394C2.80847 1.28125 2.74567 1.30726 2.69938 1.35356C2.65308 1.39986 2.62707 1.46265 2.62707 1.52813L2.62674 1.77599H5.59023V1.52813C5.59023 1.46265 5.56422 1.39986 5.51792 1.35356C5.47162 1.30726 5.40883 1.28125 5.34335 1.28125Z" fill="#3FB195"/>
</svg>
