<svg width="17" height="17" viewBox="0 0 17 17" fill="none" xmlns="http://www.w3.org/2000/svg">
<path d="M13.7651 12C13.4283 12.0013 13.0953 12.0706 12.786 12.2038C12.4767 12.3369 12.1975 12.5312 11.9651 12.775L5.8701 9.725C6.02003 9.27038 6.02003 8.77962 5.8701 8.325L11.9751 5.22C12.4124 5.68081 13.0054 5.96258 13.6388 6.01053C14.2723 6.05848 14.901 5.86918 15.4026 5.47944C15.9043 5.0897 16.2431 4.52736 16.3533 3.90171C16.4634 3.27606 16.337 2.63181 15.9986 2.09417C15.6602 1.55653 15.134 1.16391 14.5223 0.992632C13.9105 0.821353 13.257 0.883647 12.6886 1.16741C12.1202 1.45116 11.6776 1.93612 11.4469 2.528C11.2162 3.11989 11.2137 3.77642 11.4401 4.37L5.3951 7.445C5.06862 7.04572 4.62664 6.75719 4.12975 6.61896C3.63286 6.48073 3.10538 6.49957 2.61961 6.67288C2.13385 6.8462 1.71357 7.16551 1.4164 7.58706C1.11923 8.0086 0.959717 8.51174 0.959717 9.0275C0.959717 9.54326 1.11923 10.0464 1.4164 10.4679C1.71357 10.8895 2.13385 11.2088 2.61961 11.3821C3.10538 11.5554 3.63286 11.5743 4.12975 11.436C4.62664 11.2978 5.06862 11.0093 5.3951 10.61L11.4251 13.645C11.3232 13.9186 11.2707 14.2081 11.2701 14.5C11.2701 14.9945 11.4167 15.4778 11.6914 15.8889C11.9661 16.3 12.3566 16.6205 12.8134 16.8097C13.2702 16.9989 13.7729 17.0484 14.2578 16.952C14.7428 16.8555 15.1882 16.6174 15.5379 16.2678C15.8875 15.9181 16.1256 15.4727 16.2221 14.9877C16.3185 14.5028 16.269 14.0001 16.0798 13.5433C15.8906 13.0865 15.5701 12.696 15.159 12.4213C14.7479 12.1466 14.2646 12 13.7701 12H13.7651Z" fill="white"/>
</svg>
