<svg width="6" height="6" viewBox="0 0 6 6" fill="none" xmlns="http://www.w3.org/2000/svg">
<path d="M4.84352 3.7375C4.73267 3.73792 4.62305 3.76074 4.52123 3.80457C4.41942 3.84841 4.32751 3.91237 4.25102 3.9926L2.24475 2.98865C2.2941 2.839 2.2941 2.67746 2.24475 2.52781L4.25431 1.50575C4.39825 1.65743 4.59345 1.75018 4.80196 1.76596C5.01048 1.78175 5.21741 1.71944 5.38255 1.59115C5.54768 1.46286 5.65921 1.27776 5.69547 1.07181C5.73173 0.86587 5.69012 0.653803 5.57873 0.476829C5.46734 0.299856 5.29413 0.17062 5.09276 0.114241C4.8914 0.0578617 4.67626 0.0783668 4.48917 0.171771C4.30208 0.265175 4.1564 0.424805 4.08045 0.619634C4.0045 0.814463 4.0037 1.03057 4.07821 1.22596L2.0884 2.23815C1.98093 2.10672 1.83545 2.01174 1.67189 1.96624C1.50833 1.92074 1.3347 1.92694 1.1748 1.98399C1.0149 2.04104 0.876562 2.14615 0.778744 2.28491C0.680926 2.42366 0.628418 2.58928 0.628418 2.75905C0.628418 2.92882 0.680926 3.09444 0.778744 3.2332C0.876562 3.37195 1.0149 3.47706 1.1748 3.53411C1.3347 3.59116 1.50833 3.59736 1.67189 3.55186C1.83545 3.50636 1.98093 3.41139 2.0884 3.27996L4.07327 4.27898C4.03973 4.36903 4.02246 4.46432 4.02225 4.56042C4.02225 4.72317 4.07051 4.88228 4.16094 5.0176C4.25136 5.15293 4.37988 5.25841 4.53025 5.32069C4.68062 5.38298 4.84608 5.39927 5.00571 5.36752C5.16534 5.33577 5.31197 5.25739 5.42706 5.14231C5.54215 5.02722 5.62052 4.88059 5.65227 4.72096C5.68403 4.56133 5.66773 4.39587 5.60544 4.2455C5.54316 4.09513 5.43768 3.96661 5.30236 3.87619C5.16703 3.78576 5.00793 3.7375 4.84517 3.7375H4.84352Z" fill="#3FB195"/>
</svg>
